<svg width="18" height="15" viewBox="0 0 18 15" fill="none" xmlns="http://www.w3.org/2000/svg">
<path fill-rule="evenodd" clip-rule="evenodd" d="M5 0.583379L4.93417 0.583377C4.04769 0.583327 3.28387 0.583284 2.67221 0.665519C2.0167 0.753651 1.38835 0.952396 0.878684 1.46206C0.369022 1.97172 0.170277 2.60007 0.0821453 3.25559C-9.02414e-05 3.86725 -4.74453e-05 4.63106 2.38419e-06 5.51755L4.76837e-06 5.58338V9.54338L2.38419e-06 9.60921C-4.74453e-05 10.4957 -9.02414e-05 11.2595 0.0821453 11.8712C0.170277 12.5267 0.369022 13.155 0.878684 13.6647C1.38835 14.1744 2.0167 14.3731 2.67221 14.4612C3.28387 14.5435 4.04769 14.5434 4.93417 14.5434L5 14.5434H13L13.0658 14.5434C13.9523 14.5434 14.7161 14.5435 15.3278 14.4612C15.9833 14.3731 16.6117 14.1744 17.1213 13.6647C17.631 13.155 17.8297 12.5267 17.9179 11.8712C18.0001 11.2595 18.0001 10.4957 18 9.60918L18 9.54338V5.58338L18 5.51757C18.0001 4.63108 18.0001 3.86725 17.9179 3.25559C17.8297 2.60007 17.631 1.97172 17.1213 1.46206C16.6117 0.952396 15.9833 0.753651 15.3278 0.665519C14.7161 0.583284 13.9523 0.583327 13.0658 0.583377L13 0.583379H5ZM2.2929 2.87627C2.36902 2.80015 2.50497 2.706 2.93871 2.64769C3.40122 2.5855 4.02893 2.58338 5 2.58338H13C13.9711 2.58338 14.5988 2.5855 15.0613 2.64769C15.495 2.706 15.631 2.80015 15.7071 2.87627C15.7832 2.9524 15.8774 3.08834 15.9357 3.52208C15.9536 3.65513 15.9665 3.80184 15.9758 3.96646L9.44602 7.22048C9.16515 7.36045 8.83486 7.36045 8.55399 7.22048L2.02418 3.96646C2.03351 3.80184 2.04642 3.65513 2.06431 3.52208C2.12263 3.08834 2.21677 2.9524 2.2929 2.87627ZM2 6.18899V9.54338C2 10.5145 2.00213 11.1422 2.06431 11.6047C2.12263 12.0384 2.21677 12.1744 2.2929 12.2505C2.36902 12.3266 2.50497 12.4208 2.93871 12.4791C3.40122 12.5413 4.02893 12.5434 5 12.5434H13C13.9711 12.5434 14.5988 12.5413 15.0613 12.4791C15.495 12.4208 15.631 12.3266 15.7071 12.2505C15.7832 12.1744 15.8774 12.0384 15.9357 11.6047C15.9979 11.1422 16 10.5145 16 9.54338V6.18899L10.3381 9.01053C9.49544 9.43043 8.50457 9.43043 7.66195 9.01053L2 6.18899Z" fill="white"/>
</svg>
