<svg width="20" height="22" viewBox="0 0 20 22" fill="none" xmlns="http://www.w3.org/2000/svg">
<path fill-rule="evenodd" clip-rule="evenodd" d="M17 7.68005C17 12.6964 11.881 15.7148 10.3981 16.484C10.1452 16.6152 9.85485 16.6152 9.60199 16.484C8.11905 15.7148 3.00002 12.6964 3.00002 7.68005C3.00002 3.81406 6.13403 0.680054 10 0.680054C13.866 0.680054 17 3.81406 17 7.68005ZM13 7.68005C13 9.33691 11.6569 10.6801 10 10.6801C8.34317 10.6801 7.00002 9.33691 7.00002 7.68005C7.00002 6.0232 8.34317 4.68005 10 4.68005C11.6569 4.68005 13 6.0232 13 7.68005ZM18.0943 15.6604C17.8073 15.4948 17.4403 15.5931 17.2746 15.8801C17.109 16.167 17.2073 16.534 17.4943 16.6997C18.2371 17.1286 18.4 17.4902 18.4 17.6801C18.4 17.8699 18.2371 18.2315 17.4943 18.6604C16.7843 19.0703 15.72 19.4323 14.3866 19.6889C13.0604 19.9442 11.5468 20.0801 10 20.0801C8.45329 20.0801 6.93965 19.9442 5.61341 19.6889C4.28 19.4323 3.21573 19.0703 2.5058 18.6604C1.76293 18.2315 1.60002 17.8699 1.60002 17.6801C1.60002 17.4902 1.76293 17.1286 2.5058 16.6997C2.79277 16.534 2.8911 16.167 2.72541 15.8801C2.55973 15.5931 2.19277 15.4948 1.9058 15.6604C1.06883 16.1437 0.400024 16.8167 0.400024 17.6801C0.400024 18.5434 1.06883 19.2164 1.9058 19.6997C2.77569 20.2019 3.9837 20.5973 5.38664 20.8673C6.79675 21.1387 8.3871 21.2801 10 21.2801C11.613 21.2801 13.2033 21.1387 14.6134 20.8673C16.0163 20.5973 17.2244 20.2019 18.0943 19.6997C18.9312 19.2164 19.6 18.5434 19.6 17.6801C19.6 16.8167 18.9312 16.1437 18.0943 15.6604Z" fill="white"/>
</svg>
