<svg width="19" height="19" viewBox="0 0 19 19" fill="none" xmlns="http://www.w3.org/2000/svg">
<path d="M14.7071 12.2271L17.3552 14.8753C17.7113 15.2313 17.7113 15.8087 17.3552 16.1648C15.43 18.09 12.3821 18.3066 10.204 16.673L8.62857 15.4914C6.88504 14.1838 5.33622 12.635 4.02857 10.8914L2.84701 9.31603C1.21341 7.1379 1.43001 4.09001 3.35523 2.16479C3.71133 1.80869 4.28867 1.80869 4.64477 2.16479L7.29289 4.81291C7.68342 5.20344 7.68342 5.8366 7.29289 6.22713L6.27175 7.24827C6.10946 7.41056 6.06923 7.65848 6.17187 7.86375C7.35853 10.2371 9.28294 12.1615 11.6563 13.3482C11.8615 13.4508 12.1095 13.4106 12.2717 13.2483L13.2929 12.2271C13.6834 11.8366 14.3166 11.8366 14.7071 12.2271Z" stroke="#FFFEFE" stroke-width="2"/>
</svg>
