<svg width="300" height="104" viewBox="0 0 300 104" fill="none" xmlns="http://www.w3.org/2000/svg">
<path fill-rule="evenodd" clip-rule="evenodd" d="M42.401 44.1313C40.4001 44.462 39.8581 45.9195 39.0751 47.6446L21.4488 85.5457C20.6963 87.1289 20.0263 88.7469 19.2543 90.2955L15.9618 97.3487C15.544 98.1885 15.0883 99.0694 15.22 100.185C15.5878 103.304 19.3839 104.266 21.337 102.205L22.9636 100.297C23.2583 99.9676 23.3683 99.8122 23.7226 99.4142L33.2743 88.2589C34.7838 86.6428 36.8823 83.976 38.5215 82.1439L42.134 77.926C42.4351 77.605 42.5236 77.4297 42.8919 77.0433C45.3233 74.4912 49.2081 69.3923 51.7492 66.7093C52.27 66.1595 52.73 65.5297 53.3256 64.8775L57.3311 60.1677C57.5075 59.9439 57.5357 59.9495 57.7532 59.7089L66.1392 49.9135C66.6653 49.2487 67.0721 48.3805 66.9791 47.2419C66.8199 45.3002 65.2882 44.0911 63.2013 44.0793C60.6336 44.0643 43.4757 43.9534 42.4007 44.1313H42.401ZM235.817 30.9705C228.526 32.2702 230.359 42.9252 237.77 41.693C240.656 41.2134 242.722 38.7545 242.208 35.3322C241.788 32.5427 239.126 30.3807 235.817 30.9705ZM232.135 78.1192H240.914L241.397 78.1015L241.397 45.6997L240.914 45.6633L232.131 45.6692L232.135 78.1192H232.135ZM210.391 47.3641L210.379 78.1192L219.641 78.1015L219.641 53.5362C220.017 52.9622 222.777 52.8567 223.585 52.8567C226.169 52.8567 227.74 53.4411 230.072 53.846L231.593 46.1738C227.933 45.4934 227.632 44.9864 223.079 44.9864C217.094 44.9864 215.089 46.2949 210.391 47.3638V47.3641ZM278.896 47.3952L278.882 78.0964C280.912 78.2122 285.819 78.1206 288.141 78.1192L288.145 53.3604C291.946 52.1803 295.244 53.3229 298.465 53.8144C298.659 53.3918 300.022 46.8276 300 46.2247C298.341 45.3449 293.619 44.9869 291.509 44.9869C289.373 44.9869 286.801 45.2667 284.817 45.734C282.964 46.1705 280.628 46.692 278.896 47.3952H278.896ZM141.344 77.0053L141.343 45.6761L132.097 45.6694L132.056 70.7045C126.841 70.9666 122.496 72.4396 122.497 63.1175C122.497 60.8325 122.654 46.6419 122.439 45.6761L113.25 45.6694C113.065 46.8614 113.21 59.0532 113.21 61.3524C113.21 66.4612 113.327 70.8599 116.018 74.3869C117.174 75.9034 118.631 76.9908 120.506 77.7309C125.884 79.8522 136.195 78.6131 141.344 77.005L141.344 77.0053ZM205.733 76.968L204.51 69.4539C200.847 70.5869 197.703 71.4529 193.498 70.9248C191.696 70.6981 189.93 70.0448 188.864 69.1039C188.044 68.3812 186.441 66.7077 186.665 64.9332L207.484 64.9314C207.745 60.1251 207.747 56.4123 205.915 52.3628C201.338 42.2459 184.122 41.8155 178.8 53.6531C176.506 58.7573 176.356 66.4151 179.178 71.3232C182.113 76.4275 187.281 78.7731 193.224 78.966C197.217 79.0957 202.432 78.421 205.733 76.968ZM186.601 58.6022H198.682C198.531 51.4546 190.812 51.3201 188.433 54.1807C187.435 55.3793 186.9 56.6578 186.601 58.6022ZM80.5767 47.1071C80.5767 57.2101 89.7319 58.5743 96.2325 61.3328C98.5499 62.3162 101.093 63.5109 101.093 66.3953C101.093 68.1877 100.338 69.1846 99.1508 69.824C96.3906 71.3106 90.272 70.7568 87.4686 69.9405C85.5459 69.381 84.2026 68.7416 82.5607 68.0444L79.815 75.7723C80.9034 76.0628 82.3623 77.187 85.9086 78.0469C95.2095 80.3016 111.113 79.5011 111.113 66.6477C111.113 57.8093 106.706 55.7129 99.5387 52.7425C96.7299 51.5787 92.5187 50.5693 91.187 48.5815C90.2274 47.1489 90.3484 45.0997 91.4612 44.0131C93.5498 41.9739 99.7853 42.5412 102.364 43.3676C103.808 43.8304 104.889 44.4295 106.203 44.9379C106.459 44.6855 108.963 37.9342 109.027 37.2662C108.168 37.0095 107.342 36.5001 106.431 36.1646C102.331 34.6543 100.153 34.3973 95.705 34.3973C87.549 34.3973 80.5762 38.8807 80.5762 47.1071H80.5767ZM244.125 61.7307C244.125 71.4996 250.243 78.9789 259.76 78.9789C262.647 78.9789 264.751 78.6576 267.274 77.5385C280.759 71.5583 279.473 44.7867 259.886 44.7867C257.469 44.7867 255.203 45.395 253.222 46.2643C249.596 47.8545 246.733 51.117 245.394 54.7239C244.62 56.8087 244.125 59.2124 244.125 61.7307H244.125ZM258.821 52.8896C254.558 53.7166 253.315 58.4955 253.645 63.3053C253.954 67.8056 256.434 71.8723 261.511 70.9216C265.684 70.1402 266.937 65.1967 266.647 60.4973C266.372 56.0332 264.033 51.8783 258.821 52.8893V52.8896ZM145.641 46.7456L145.617 89.5165C148.127 89.5165 152.594 89.6031 154.879 89.4929L154.88 77.3761C158.347 78.4019 158.24 78.727 162.237 78.727C170.884 78.727 175.876 71.2871 175.876 62.7394V61.1005C175.876 51.4798 169.098 44.913 159.329 44.913C153.995 44.913 150.525 45.5882 145.641 46.7456ZM154.956 53.0965C154.759 53.8189 154.854 67.8166 154.885 69.6959C156.427 70.2085 156.992 70.6898 158.975 70.8755C164.286 71.3731 166.423 67.8565 166.437 62.361C166.446 58.8399 165.614 56.2516 163.707 54.465C161.692 52.5777 158.209 52.4965 154.956 53.0965H154.956ZM47.7581 0.65697C45.9288 0.953881 45.0644 2.49765 43.9104 3.80776C42.7745 5.09803 41.859 6.21868 40.6859 7.52262L29.496 20.5735C29.3403 20.7542 29.268 20.8954 29.1099 21.0776L27.8739 22.4877C27.377 23.1418 26.8124 23.671 26.3086 24.3337L18.6776 33.2456C18.4437 33.5012 18.4542 33.4492 18.2558 33.703L15.4623 36.9695C15.2781 37.1662 15.2369 37.2557 15.0627 37.458L7.07713 46.7673C6.80504 47.1315 6.55715 47.3483 6.2665 47.7258C4.9055 49.4944 2.2112 52.3089 0.678664 54.2576C0.181532 54.8903 -0.143527 55.9187 0.0632306 56.97C0.480779 59.0931 2.11656 59.8464 4.12821 59.841C6.03716 59.8359 23.9103 59.9967 24.89 59.733C26.8592 59.2035 27.2122 57.7948 28.0549 55.9482C30.9535 49.5963 34.0253 43.3475 36.8699 36.9995C38.2693 33.8764 39.7744 30.6302 41.2855 27.5378C42.0671 25.9383 42.7102 24.3669 43.4786 22.7862C45.7011 18.2143 47.8928 13.0082 50.0978 8.58592C50.774 7.22919 52.0396 4.96673 51.7255 3.43582C51.3946 1.8213 49.8005 0.324956 47.7581 0.656434V0.65697Z" fill="white"/>
</svg>
