<?xml version="1.0" encoding="UTF-8"?>
<!DOCTYPE svg PUBLIC "-//W3C//DTD SVG 1.1//EN" "http://www.w3.org/Graphics/SVG/1.1/DTD/svg11.dtd">
<!-- Creator: CorelDRAW -->
<svg xmlns="http://www.w3.org/2000/svg" xml:space="preserve" width="120.486mm" height="41.3786mm" version="1.1" style="shape-rendering:geometricPrecision; text-rendering:geometricPrecision; image-rendering:optimizeQuality; fill-rule:evenodd; clip-rule:evenodd"
viewBox="0 0 11157.99 3831.99"
 xmlns:xlink="http://www.w3.org/1999/xlink"
 xmlns:xodm="http://www.corel.com/coreldraw/odm/2003">
 <defs>
  <style type="text/css">
   <![CDATA[
    .fil0 {fill:#5D974A}
   ]]>
  </style>
 </defs>
 <g id="Capa_x0020_1">
  <metadata id="CorelCorpID_0Corel-Layer"/>
  <path class="fil0" d="M1577.03 1624.1c-74.42,12.34 -94.58,66.73 -123.7,131.11l-655.58 1414.38c-27.99,59.08 -52.91,119.46 -81.62,177.25l-122.46 263.21c-15.54,31.34 -32.49,64.21 -27.59,105.86 13.68,116.36 154.87,152.27 227.51,75.36l60.5 -71.19c10.96,-12.3 15.05,-18.1 28.23,-32.95l355.26 -416.29c56.14,-60.31 134.19,-159.83 195.16,-228.2l134.36 -157.4c11.2,-11.98 14.49,-18.52 28.19,-32.94 90.43,-95.24 234.92,-285.52 329.43,-385.64 19.37,-20.52 36.48,-44.02 58.63,-68.36l148.98 -175.76c6.56,-8.35 7.61,-8.14 15.7,-17.12l311.9 -365.54c19.57,-24.81 34.7,-57.21 31.24,-99.7 -5.92,-72.46 -62.89,-117.58 -140.51,-118.02 -95.5,-0.56 -733.66,-4.7 -773.64,1.94zm7193.78 -491.13c-271.17,48.5 -202.99,446.12 72.65,400.14 107.31,-17.9 184.18,-109.66 165.04,-237.37 -15.61,-104.1 -114.62,-184.78 -237.69,-162.77zm-136.96 1759.48l326.51 0 17.98 -0.66 -0.01 -1209.16 -17.95 -1.36 -326.68 0.22 0.16 1210.96zm-808.72 -1147.71l-0.45 1147.71 344.48 -0.66 -0.01 -916.72c14.01,-21.42 116.64,-25.36 146.69,-25.36 96.14,0 154.55,21.81 241.28,36.92l56.58 -286.31c-136.13,-25.39 -147.32,-44.31 -316.68,-44.31 -222.57,0 -297.17,48.83 -471.89,88.72zm2547.92 1.16l-0.5 1145.7c75.48,4.32 258.01,0.9 344.34,0.85l0.17 -923.94c141.38,-44.04 264.02,-1.4 383.84,16.94 7.2,-15.77 57.9,-260.73 57.07,-283.23 -61.7,-32.83 -237.32,-46.19 -315.81,-46.19 -79.42,0 -175.08,10.44 -248.9,27.88 -68.91,16.29 -155.79,35.75 -220.2,61.99zm-5115.99 1104.98l-0.05 -1169.13 -343.89 -0.25 -1.52 934.25c-193.97,9.78 -355.57,64.75 -355.55,-283.13 0,-85.27 5.85,-614.83 -2.16,-650.87l-341.74 -0.25c-6.91,44.48 -1.5,499.45 -1.5,585.25 0,190.65 4.34,354.8 104.42,486.42 43.03,56.59 97.2,97.17 166.95,124.79 200,79.16 583.52,32.92 775.03,-27.09zm2394.82 -1.39l-45.49 -280.41c-136.24,42.28 -253.18,74.6 -409.57,54.89 -67.01,-8.46 -132.7,-32.84 -172.37,-67.95 -30.48,-26.97 -90.09,-89.42 -81.77,-155.64l774.34 -0.07c9.68,-179.36 9.78,-317.91 -58.37,-469.03 -170.24,-377.54 -810.57,-393.6 -1008.49,48.15 -85.34,190.48 -90.89,476.25 14.07,659.41 109.16,190.48 301.37,278.01 522.41,285.21 148.52,4.84 342.48,-20.34 465.24,-74.56zm-711.59 -685.37l449.35 0c-5.63,-266.73 -292.73,-271.75 -381.22,-165 -37.09,44.73 -57.01,92.44 -68.13,165zm-3943.38 -428.97c0,377.02 340.51,427.93 582.29,530.87 86.19,36.7 180.76,81.28 180.76,188.92 0,66.89 -28.08,104.09 -72.22,127.95 -102.66,55.48 -330.23,34.81 -434.5,4.35 -71.51,-20.88 -121.47,-44.74 -182.54,-70.76l-102.12 288.39c40.48,10.84 94.74,52.79 226.64,84.88 345.93,84.14 937.45,54.27 937.45,-425.39 0,-329.83 -163.91,-408.06 -430.5,-518.91 -104.47,-43.43 -261.1,-81.1 -310.63,-155.28 -35.69,-53.46 -31.19,-129.93 10.2,-170.48 77.68,-76.1 309.6,-54.93 405.5,-24.09 53.72,17.27 93.92,39.63 142.81,58.6 9.5,-9.42 102.63,-261.36 105.02,-286.29 -31.95,-9.58 -62.66,-28.59 -96.54,-41.11 -152.5,-56.36 -233.52,-65.95 -398.95,-65.95 -303.35,0 -562.69,167.31 -562.69,474.3zm6082.91 545.72c0,364.55 227.52,643.66 581.49,643.66 107.38,0 185.63,-11.99 279.48,-53.75 501.55,-223.17 453.72,-1222.22 -274.78,-1222.22 -89.89,0 -174.17,22.7 -247.87,55.14 -134.86,59.34 -241.33,181.09 -291.13,315.69 -28.78,77.8 -47.2,167.5 -47.2,261.48zm546.57 -329.93c-158.54,30.86 -204.78,209.2 -192.49,388.69 11.49,167.94 103.71,319.7 292.56,284.22 155.21,-29.16 201.81,-213.64 191.02,-389.01 -10.25,-166.59 -97.24,-321.64 -291.09,-283.91zm-4209.52 -229.28l-0.91 1596.11c93.36,0 259.52,3.23 344.49,-0.88l0.03 -452.17c128.96,38.28 124.99,50.41 273.66,50.41 321.6,0 507.25,-277.64 507.25,-596.62l0 -61.16c0,-359.02 -252.08,-604.08 -615.44,-604.08 -198.38,0 -327.43,25.2 -509.08,68.39zm346.45 237c-7.32,26.96 -3.8,549.32 -2.64,619.45 57.34,19.13 78.36,37.09 152.11,44.02 197.54,18.57 277.01,-112.66 277.55,-317.74 0.34,-131.4 -30.61,-227.99 -101.54,-294.66 -74.94,-70.43 -204.48,-73.46 -325.47,-51.07zm-3987.04 -1956.92c-68.04,11.08 -100.19,68.69 -143.11,117.58 -42.25,48.15 -76.3,89.97 -119.93,138.63l-416.19 487.03c-5.79,6.74 -8.48,12.01 -14.36,18.81l-45.97 52.62c-18.48,24.41 -39.48,44.16 -58.22,68.89l-283.82 332.57c-8.7,9.54 -8.31,7.6 -15.69,17.07l-103.9 121.9c-6.85,7.34 -8.38,10.68 -14.86,18.23l-297.01 347.4c-10.12,13.59 -19.34,21.68 -30.15,35.77 -50.62,66 -150.83,171.03 -207.83,243.75 -18.49,23.61 -30.58,61.99 -22.89,101.22 15.53,79.23 76.37,107.34 151.19,107.14 71,-0.19 735.76,5.81 772.2,-4.03 73.24,-19.76 86.37,-72.33 117.71,-141.24 107.81,-237.04 222.06,-470.23 327.86,-707.12 52.05,-116.55 108.03,-237.69 164.23,-353.09 29.07,-59.69 52.99,-118.33 81.57,-177.32 82.66,-170.61 164.18,-364.89 246.19,-529.92 25.15,-50.63 72.22,-135.06 60.54,-192.19 -12.31,-60.25 -71.6,-116.09 -147.56,-103.72z"/>
 </g>
</svg>
