<svg width="25" height="26" viewBox="0 0 25 26" fill="none" xmlns="http://www.w3.org/2000/svg">
<path d="M12.5 0.339233C5.60804 0.339233 0.020874 5.9264 0.020874 12.8184C0.020874 18.6706 4.05014 23.5814 9.48556 24.9301V16.632H6.91236V12.8184H9.48556V11.1751C9.48556 6.92773 11.4078 4.95901 15.5779 4.95901C16.3686 4.95901 17.7328 5.11426 18.2908 5.269V8.72572C17.9963 8.69477 17.4847 8.6793 16.8493 8.6793C14.8032 8.6793 14.0125 9.4545 14.0125 11.4696V12.8184H18.0887L17.3884 16.632H14.0125V25.2062C20.1917 24.4599 24.9797 19.1987 24.9797 12.8184C24.9792 5.9264 19.392 0.339233 12.5 0.339233Z" fill="white"/>
</svg>
