<svg width="25" height="26" viewBox="0 0 25 26" fill="none" xmlns="http://www.w3.org/2000/svg">
<path d="M23.1317 0.572632H1.8635C0.844693 0.572632 0.020874 1.37695 0.020874 2.37138V23.7273C0.020874 24.7217 0.844693 25.5309 1.8635 25.5309H23.1317C24.1505 25.5309 24.9792 24.7217 24.9792 23.7322V2.37138C24.9792 1.37695 24.1505 0.572632 23.1317 0.572632ZM7.42549 21.8408H3.72075V9.92712H7.42549V21.8408ZM5.57312 8.30385C4.3837 8.30385 3.42339 7.34354 3.42339 6.159C3.42339 4.97446 4.3837 4.01415 5.57312 4.01415C6.75766 4.01415 7.71797 4.97446 7.71797 6.159C7.71797 7.33867 6.75766 8.30385 5.57312 8.30385ZM21.289 21.8408H17.5892V16.0497C17.5892 14.6702 17.5648 12.8909 15.6637 12.8909C13.7382 12.8909 13.4457 14.3972 13.4457 15.9522V21.8408H9.75071V9.92712H13.2995V11.5553H13.3482C13.8406 10.6193 15.0495 9.62976 16.8482 9.62976C20.5968 9.62976 21.289 12.0963 21.289 15.3039V21.8408V21.8408Z" fill="white"/>
</svg>
