<svg width="25" height="26" viewBox="0 0 25 26" fill="none" xmlns="http://www.w3.org/2000/svg">
<g clip-path="url(#clip0_33_178)">
<path d="M12.5 2.449C15.8343 2.449 16.2291 2.46363 17.5404 2.52212C18.7591 2.57575 19.4172 2.78048 19.8559 2.95109C20.436 3.17533 20.8552 3.44831 21.2891 3.88216C21.7278 4.32088 21.9959 4.73522 22.2201 5.31531C22.3907 5.75403 22.5955 6.41698 22.6491 7.63077C22.7076 8.94694 22.7222 9.34178 22.7222 12.6712C22.7222 16.0055 22.7076 16.4003 22.6491 17.7116C22.5955 18.9303 22.3907 19.5883 22.2201 20.0271C21.9959 20.6071 21.7229 21.0264 21.2891 21.4602C20.8503 21.8989 20.436 22.167 19.8559 22.3913C19.4172 22.5619 18.7542 22.7666 17.5404 22.8202C16.2243 22.8787 15.8294 22.8934 12.5 22.8934C9.16575 22.8934 8.7709 22.8787 7.45962 22.8202C6.24095 22.7666 5.58287 22.5619 5.14415 22.3913C4.56406 22.167 4.14484 21.8941 3.711 21.4602C3.27228 21.0215 3.00417 20.6071 2.77994 20.0271C2.60932 19.5883 2.40459 18.9254 2.35097 17.7116C2.29247 16.3954 2.27785 16.0006 2.27785 12.6712C2.27785 9.33691 2.29247 8.94206 2.35097 7.63077C2.40459 6.41211 2.60932 5.75403 2.77994 5.31531C3.00417 4.73522 3.27715 4.316 3.711 3.88216C4.14972 3.44344 4.56406 3.17533 5.14415 2.95109C5.58287 2.78048 6.24583 2.57575 7.45962 2.52212C8.7709 2.46363 9.16575 2.449 12.5 2.449ZM12.5 0.201782C9.11213 0.201782 8.68803 0.216406 7.35725 0.274902C6.03134 0.333398 5.11978 0.547884 4.33008 0.854988C3.50626 1.17672 2.80918 1.60081 2.11698 2.29789C1.4199 2.99009 0.995808 3.68717 0.67408 4.50611C0.366975 5.30068 0.15249 6.20737 0.093994 7.53328C0.035498 8.86894 0.020874 9.29304 0.020874 12.6809C0.020874 16.0688 0.035498 16.4929 0.093994 17.8237C0.15249 19.1496 0.366975 20.0612 0.67408 20.8509C0.995808 21.6747 1.4199 22.3718 2.11698 23.064C2.80918 23.7562 3.50626 24.1851 4.32521 24.502C5.11978 24.8091 6.02646 25.0236 7.35237 25.0821C8.68316 25.1406 9.10725 25.1552 12.4951 25.1552C15.883 25.1552 16.3071 25.1406 17.6379 25.0821C18.9638 25.0236 19.8754 24.8091 20.6651 24.502C21.484 24.1851 22.1811 23.7562 22.8733 23.064C23.5655 22.3718 23.9945 21.6747 24.3113 20.8557C24.6184 20.0612 24.8329 19.1545 24.8914 17.8286C24.9499 16.4978 24.9646 16.0737 24.9646 12.6858C24.9646 9.29791 24.9499 8.87382 24.8914 7.54303C24.8329 6.21712 24.6184 5.30556 24.3113 4.51586C24.0042 3.68717 23.5801 2.99009 22.8831 2.29789C22.1909 1.60569 21.4938 1.17672 20.6748 0.859862C19.8803 0.552758 18.9736 0.338273 17.6477 0.279777C16.312 0.216406 15.8879 0.201782 12.5 0.201782Z" fill="white"/>
<path d="M12.5 6.27075C8.96102 6.27075 6.08984 9.14193 6.08984 12.6809C6.08984 16.2199 8.96102 19.0911 12.5 19.0911C16.039 19.0911 18.9102 16.2199 18.9102 12.6809C18.9102 9.14193 16.039 6.27075 12.5 6.27075ZM12.5 16.839C10.2041 16.839 8.34194 14.9769 8.34194 12.6809C8.34194 10.385 10.2041 8.52285 12.5 8.52285C14.796 8.52285 16.6581 10.385 16.6581 12.6809C16.6581 14.9769 14.796 16.839 12.5 16.839Z" fill="white"/>
<path d="M20.6602 6.01728C20.6602 6.84597 19.9875 7.5138 19.1636 7.5138C18.3349 7.5138 17.6671 6.8411 17.6671 6.01728C17.6671 5.18858 18.3398 4.52075 19.1636 4.52075C19.9875 4.52075 20.6602 5.19346 20.6602 6.01728Z" fill="white"/>
</g>
<defs>
<clipPath id="clip0_33_178">
<rect width="24.9583" height="24.9583" fill="white" transform="translate(0.020874 0.201782)"/>
</clipPath>
</defs>
</svg>
