<svg width="25" height="18" viewBox="0 0 25 18" fill="none" xmlns="http://www.w3.org/2000/svg">
<path d="M24.7306 3.9435C24.7306 3.9435 24.4868 2.22274 23.7361 1.46717C22.7856 0.472737 21.7229 0.467862 21.2354 0.409366C17.7452 0.155884 12.5049 0.155884 12.5049 0.155884H12.4951C12.4951 0.155884 7.25488 0.155884 3.76462 0.409366C3.27715 0.467862 2.21447 0.472737 1.26391 1.46717C0.513215 2.22274 0.274357 3.9435 0.274357 3.9435C0.274357 3.9435 0.020874 5.96649 0.020874 7.9846V9.87597C0.020874 11.8941 0.269482 13.9171 0.269482 13.9171C0.269482 13.9171 0.513215 15.6378 1.25904 16.3934C2.2096 17.3878 3.45751 17.3537 4.01323 17.461C6.01184 17.6511 12.5 17.7096 12.5 17.7096C12.5 17.7096 17.7452 17.6998 21.2354 17.4512C21.7229 17.3927 22.7856 17.3878 23.7361 16.3934C24.4868 15.6378 24.7306 13.9171 24.7306 13.9171C24.7306 13.9171 24.9792 11.899 24.9792 9.87597V7.9846C24.9792 5.96649 24.7306 3.9435 24.7306 3.9435ZM9.92132 12.1719V5.15729L16.663 8.6768L9.92132 12.1719Z" fill="white"/>
</svg>
