<?xml version="1.0" encoding="UTF-8"?>
<!DOCTYPE svg PUBLIC "-//W3C//DTD SVG 1.1//EN" "http://www.w3.org/Graphics/SVG/1.1/DTD/svg11.dtd">
<!-- Creator: CorelDRAW -->
<svg xmlns="http://www.w3.org/2000/svg" xml:space="preserve" width="26.9057mm" height="41.3784mm" version="1.1" style="shape-rendering:geometricPrecision; text-rendering:geometricPrecision; image-rendering:optimizeQuality; fill-rule:evenodd; clip-rule:evenodd"
viewBox="0 0 600.83 924.02"
 xmlns:xlink="http://www.w3.org/1999/xlink"
 xmlns:xodm="http://www.corel.com/coreldraw/odm/2003">
 <defs>
  <style type="text/css">
   <![CDATA[
    .fil0 {fill:#5D974A}
   ]]>
  </style>
 </defs>
 <g id="Capa_x0020_1">
  <metadata id="CorelCorpID_0Corel-Layer"/>
  <path class="fil0" d="M428.32 0.42c-16.41,2.67 -24.16,16.56 -34.51,28.35 -10.19,11.61 -18.4,21.69 -28.92,33.43l-100.36 117.44c-1.4,1.63 -2.05,2.9 -3.46,4.54l-11.09 12.69c-4.46,5.89 -9.52,10.65 -14.04,16.61l-68.44 80.19c-2.1,2.3 -2,1.83 -3.78,4.12l-25.05 29.39c-1.65,1.77 -2.02,2.57 -3.58,4.4l-71.62 83.77c-2.44,3.28 -4.66,5.23 -7.27,8.63 -12.21,15.92 -36.37,41.24 -50.12,58.78 -4.46,5.69 -7.37,14.95 -5.52,24.41 3.74,19.1 18.42,25.88 36.46,25.83 17.12,-0.05 177.42,1.4 186.2,-0.97 17.66,-4.77 20.83,-17.44 28.38,-34.06 26,-57.16 53.55,-113.39 79.06,-170.51 12.55,-28.1 26.05,-57.31 39.6,-85.14 7.01,-14.39 12.78,-28.53 19.67,-42.76 19.93,-41.14 39.59,-87.99 59.36,-127.78 6.07,-12.21 17.41,-32.57 14.6,-46.34 -2.97,-14.53 -17.26,-27.99 -35.58,-25.01l0 -0zm-48.05 391.21c-17.95,2.97 -22.81,16.09 -29.83,31.61l-158.08 341.05c-6.75,14.25 -12.76,28.81 -19.68,42.74l-29.53 63.47c-3.75,7.56 -7.83,15.48 -6.65,25.53 3.3,28.06 37.34,36.72 54.86,18.17l14.59 -17.17c2.64,-2.97 3.63,-4.36 6.81,-7.95l85.67 -100.38c13.54,-14.54 32.36,-38.54 47.06,-55.03l32.4 -37.95c2.7,-2.89 3.49,-4.47 6.8,-7.94 21.81,-22.97 56.65,-68.85 79.44,-92.99 4.67,-4.95 8.8,-10.61 14.14,-16.48l35.92 -42.38c1.58,-2.01 1.84,-1.96 3.79,-4.13l75.21 -88.14c4.72,-5.98 8.37,-13.8 7.53,-24.04 -1.43,-17.47 -15.16,-28.35 -33.88,-28.46 -23.03,-0.13 -176.91,-1.13 -186.55,0.47l0 0z"/>
 </g>
</svg>
